<?xml version="1.0" encoding="UTF-8"?><svg id="Layer_1" xmlns="http://www.w3.org/2000/svg" viewBox="0 0 100 100"><defs><style>.cls-1{fill:#0c53b7;}</style></defs><path class="cls-1" d="M97.15,.96H2.93c-1.06,0-1.93,.86-1.93,1.93V97.11c0,1.06,.86,1.93,1.93,1.93H97.15c1.06,0,1.93-.86,1.93-1.93V2.89c0-1.06-.86-1.93-1.93-1.93ZM47.88,51.63c0,.78-.63,1.41-1.41,1.41h-14.17v14.17c0,.78-.63,1.41-1.41,1.41h-3.17c-.78,0-1.41-.63-1.41-1.41v-14.17H12.14c-.78,0-1.41-.63-1.41-1.41v-3.17c0-.78,.63-1.41,1.41-1.41h14.17v-14.17c0-.78,.63-1.41,1.41-1.41h3.17c.78,0,1.41,.63,1.41,1.41v14.17h14.17c.78,0,1.41,.63,1.41,1.41v3.17Zm41.39-.09c0,.78-.63,1.41-1.41,1.41h-14.17v14.17c0,.78-.63,1.41-1.41,1.41h-3.17c-.78,0-1.41-.63-1.41-1.41v-14.17h-14.17c-.78,0-1.41-.63-1.41-1.41v-3.17c0-.78,.63-1.41,1.41-1.41h14.17v-14.17c0-.78,.63-1.41,1.41-1.41h3.17c.78,0,1.41,.63,1.41,1.41v14.17h14.17c.78,0,1.41,.63,1.41,1.41v3.17Z"/></svg>