<?xml version="1.0" encoding="utf-8"?>
<!-- Generator: Adobe Illustrator 27.8.1, SVG Export Plug-In . SVG Version: 6.00 Build 0)  -->
<svg version="1.1" id="Layer_1" xmlns="http://www.w3.org/2000/svg" xmlns:xlink="http://www.w3.org/1999/xlink" x="0px" y="0px"
	 viewBox="0 0 2463.1 2075.3" style="enable-background:new 0 0 2463.1 2075.3;" xml:space="preserve">
<style type="text/css">
	.st0{fill:#FCFCFC;}
	.st1{fill:#433199;}
	.st2{fill:#020203;}
	.st3{fill:#8261DA;}
	.st4{fill:#FEFEFE;}
</style>
<g>
	<path class="st0" d="M2413,1742.4h-0.6h-0.6c0-22,0-44,0-66c0.4,0,0.8,0,1.2,0C2413,1698.4,2413,1720.4,2413,1742.4z"/>
	<path class="st1" d="M1239.2,2077.8c-2.5,0.1-5,0.2-7.5,0.2c-363.1,0-726.3,0-1089.4,0c-10,0-9.8,0-10.9-9.9
		c-2.7-25.1-5.6-50.1-8.4-75.2c-2.7-24.1-5.3-48.1-8-72.2c-2.8-25.6-5.7-51.1-8.6-76.7c-2.7-24.6-5.3-49.1-8.1-73.7
		c-3.2-29.3-6.6-58.6-9.8-87.8c-2.7-24.3-5.4-48.6-8.1-73c-3.3-29.8-6.7-59.5-10-89.3c-2.7-24.3-5.4-48.6-8-73
		c-1.8-16.4-4.1-32.7-5.3-49.1c-4.2-55.9,10-105.6,51.5-145.1c27-25.7,59.9-38.4,97.1-38.6c51.4-0.3,102.9-0.1,154.3-0.1
		c1.2,0,2.5,0.2,3.7,0.2c1.5,6.2,2.5,6.6,6.7,2.8c1.1-1,2.2-2,3.3-3c74.7,0,149.4,0,224.1,0c7.5,0,14.9,0.2,22.4,1.2
		c18.5,2.4,36,7.7,52.8,15.6c27.8,13.1,50.7,32.4,70.2,56c31.7,38.3,46.8,82.8,50.7,131.8c0.9,10.9,2.2,21.8,3.4,32.7
		c1.3,11.9,2.8,23.7,4.1,35.6c1.2,10.6,2.2,21.3,3.4,31.9c1.3,11.9,2.8,23.7,4.1,35.6c1.2,10.6,2.2,21.3,3.4,31.9
		c1.3,11.9,2.8,23.7,4.1,35.6c1.2,10.6,2.2,21.3,3.4,31.9c1.3,11.9,2.8,23.7,4.1,35.6c1.2,10.6,2.2,21.3,3.4,31.9
		c1.3,11.1,2.8,22.2,4,33.3c1.1,9.6,2.1,19.3,3.1,28.9c0.2,2.5,1.4,3.6,3.8,3.5c1.2,0,2.5,0,3.7,0c50.5,0,100.9,0,151.4,0
		c2.4,0,5,0.8,7.2-1.2c21.6,7.9,43.7,9.3,66.2,5.5c6.1-1,12.1-4,18.2-4c20.4,0,40.9-1.6,61.3,1c22,2.7,41.1,11.8,57.4,26.7
		c24,22,35.1,49.8,35.2,82c0.2,56.9,0,113.8,0.1,170.7C1239,2071.3,1239.1,2074.6,1239.2,2077.8z"/>
	<path class="st2" d="M1239.2,2077.8c-0.1-3.2-0.2-6.5-0.2-9.7c0-56.9,0.1-113.8-0.1-170.7c-0.1-32.2-11.2-60-35.2-82
		c-16.3-14.9-35.4-24-57.4-26.7c-20.4-2.5-40.9-1-61.3-1c-6.1,0-12.1,2.9-18.2,4c-22.5,3.8-44.6,2.5-66.2-5.5
		c-16.8-6.3-31.7-15.6-45.4-27.1c-23.2-19.5-41.5-43.1-57.9-68.4c-23.3-36-40.8-74.9-56.7-114.6c-1-2.5-3.7-5.4-0.2-8
		c2.1-1.6,3.9,0,6.2,5.5c4.9,11.5,9.5,23.1,14.6,34.5c14.9,33,31.2,65.4,52.4,94.9c16.4,22.8,34.5,44,57.8,60.3
		c19.2,13.5,40.2,22.6,63.7,23.7c44.7,2.1,79.6-15,102.7-54.3c9.8-16.7,16.3-34.8,21.7-53.3c15.4-52.9,22.8-107.3,29-161.9
		c0.6-5.3,0.4-5.3-5.5-6.2c-23.7-3.3-47.4-6.7-71.2-10c-14.8-2.1-29.7-4.1-44.5-6.2c-8-1.1-8-1-10.7,6.3c-3.2,8.4-6.2,16.9-9.8,25.1
		c-1.6,3.5-1.7,6.4-0.4,9.9c6,16.4,11.8,32.9,17.6,49.4c0.9,2.6,3.4,6.2-0.7,7.6c-4,1.4-4.5-2.9-5.5-5.6
		c-5.1-14.1-10.1-28.2-15.1-42.3c-23.8-66.3-46.2-133-71.9-198.5c-12.6-32.1-24.5-64.4-40.6-95c-18.6-35.4-44.6-63.6-79.3-83.7
		c-30.6-17.7-63.8-28.4-97.9-36.3c-39.7-9.2-79.8-15.5-120.3-20c-32.8-3.6-65.6-5.9-98.6-4.7c-18,0.6-35.9,1.9-53.7,4.5
		c-3.9,0.6-6.9,2.2-9.9,4.7c-30.9,26.2-59.8,54.6-86.4,85.1c-3.6,4.1-7.7,7.9-10.3,12.8c-1.1,1-2.2,2-3.3,3
		c-4.2,3.8-5.2,3.4-6.7-2.8c10.1-11.4,20-22.8,30.3-34c21.8-23.7,44.8-46.1,69.6-66.7c9.6-8,16.8-17.6,22.6-28.5
		c11-20.8,17.7-43.2,24.3-65.7c2.1-7.2,4-14.4,6.1-21.5c1.9,0.4,3.9,0.9,5.9,0.5c-0.2,1.5-0.3,3-0.7,4.4c-9.4,34.9-18.6,70-39,100.7
		c-0.1,0.2,0,0.5-0.1,1c1,0,1.9,0.1,2.9,0c20.6-2.9,41.2-4,62-4.1c54.1-0.3,107.5,6.8,160.8,15.8c10.3,1.7,8.6,2.2,10.6-6.8
		c0.2-1,0.5-1.9,0.7-2.9c2.5-11.8,5.1-23.7,7.6-35.6c-5.7-1.8-11-1.7-16.1-2.5c-27.2-4.5-53.3-12.9-78.7-23.4c-1.4-0.6-2.9-1.1-4-2
		c-1.3-1-1.5-2.6-0.8-4.1c0.8-1.7,2.2-1.9,3.8-1.4c1.7,0.6,3.2,1.3,4.9,1.9c25.1,10,50.6,18.5,77.4,22.6c26,4,51.8,3.4,76.9-5.2
		c34.4-11.9,58.6-34.3,69.7-69.7c0.8-2.5,1.8-5,1-7.7c-33.1,3.2-54.4-17.3-61.4-37.2c-2.1-5.9-1.6-6.9,4.9-6.8
		c9.2,0.1,18.5,0.2,27.7,0.6c8.8,0.4,17.5-0.2,26.2-0.8c6.1-0.4,6.1-0.6,6.5-7.2c0.6-11.3,2.4-22.3,6.9-32.8s11.5-19.2,18.7-27.8
		c12-14.5,8.5-27.1-8.9-33.9c-0.5-0.2-0.9-0.3-1.4-0.5c-14.3-5.7-24.9-15.5-31.9-29.1c-4-7.8-7.2-15.9-9.8-24.3
		c-6-19.6-8.9-39.9-13.4-59.9c-3.2-13.8-6-27.8-11.9-40.8c-0.4-1.6-1-3.3-1.3-4.9c-0.6-3.4,0.8-4.7,4.1-3.9c1.1,0.3,2.1,1.2,3.2,1.8
		c-0.2,1.5-0.1,3,0.5,4.4c7.9,20.1,11.7,41.2,16,62.2c3.3,16.1,6.5,32.3,12,47.9c3.2,9,7.3,17.5,13.5,24.9
		c6.5,7.9,14.8,13.3,24.5,16.6c8.3,2.8,14.4,8,17.2,16.4c2.2,6.5,1.2,12.8-1.9,18.9c-2.3,4.5-5.4,8.4-8.7,12.2
		c-13.9,15.9-20.7,34.4-20.7,55.5c0,11.5-0.1,23-0.9,34.5c-2.6,36.6-20.1,64.2-50.2,84.2c-21.2,14.1-44.9,20-70.1,21.1
		c-4.2,0.2-8.5,0.2-12.7,0.1c-2.3-0.1-3.6,0.5-4.1,3.1c-2.9,13.9-5.9,27.8-9.1,41.7c-0.7,3.2,0.9,3.8,3.3,4.3
		c11.7,2.5,23.5,4.8,35.1,7.7c33.1,8.2,64.9,19.5,94.4,37.1c7.5,4.4,14.5,9.5,22.3,15.1c2-7.3,3.8-13.7,5.6-20.1
		c9.6-35.9,19.2-71.8,28.9-107.7c1.8-6.7,0.5-6,7.2-6c102.2,0,204.4,0,306.5,0c1,0,2,0.1,2.9,0.2c1.4,1.8,0.3,3.4-0.2,5
		c-9.5,35.4-19,70.8-28.7,106.2c-1.3,4.7-1.2,8.9,0.7,13.6c9.5,24.1,19.4,48.1,27.5,72.8c9.4,28.8,10,57.8,3.8,87.2
		c-3.5,16.7-8.2,32.9-15.5,48.3c-8.3,17.6-11.6,36.5-13.8,55.7c-4.1,35.7-7.9,71.5-12.3,107.2c-4.9,38.9-11.2,77.6-20.2,115.7
		c-0.5,1.9-1.2,3.8-0.4,5.9c2.4,0.9,4.9,0.4,7.4,0.4c161.1,0,322.3,0,483.4,0c9.4,0,8.4,1.3,8-8.4c-2.5-58.9-5-117.8-7.6-176.7
		c-1-22.4-2.1-44.8-3.2-67.7c-2.9,0.8-3,3.4-3.8,5.2c-13.7,28-27.9,55.8-45.6,81.7c-9.9,14.5-20.8,28.1-34.3,39.5
		c-18.1,15.2-38.5,23.9-62.5,22.6c-21.1-1.2-39.6-8.9-55.8-22.8c-20.8-17.9-34.3-40.6-45-65.4c-13.1-30.4-21.1-62.3-26.8-94.8
		c-8.1-46-14.3-92.3-19.8-138.6c-4.3-35.7-8.8-71.4-12.8-107.1c-1.4-12.2-2.6-10.8,9.7-13.5c3.1-0.7,6.5-0.7,9.4-2.5
		c0.9-2.9-1-5.2-2-7.6c-6.2-13.7-16-24.6-27.4-34.2c-10.9-9.2-22.6-17.3-34.6-25c-31.4-20.3-53.2-48.6-68.9-82
		c-2.4-5.2-4.2-10.7-5.3-16.3c-1.4-6.6-0.8-13,2.2-19c1.5-2.9,1.3-4.9,0-7.6c-2.5-5.1-5-10.3-6.6-15.9c-3.3-12-3-22.9,9-30.2
		c1.2-0.7,1.6-1.6,2-2.9c5.7-19,14.8-23.6,32.9-16.6c0.9,0,1.2-0.7,1.4-1.3c3.9-11.5,14.7-14.2,25.9-10.1c5.1,1.9,9,5.3,12.3,9.5
		c2.7,3.3,4.9,7,6.6,10.9c10.9,25.2,29.5,43.6,51.8,58.7c14.1,9.5,29.1,17.4,44.4,24.7c0.8,0.4,1.7,1.1,3.3,0.2
		c1.4-2.9,0.9-6.4,0.3-9.8c-0.9-6.2-2.1-12.3-3.3-18.4c-1.9-10.4-0.7-20.4,4.3-29.8c1-2,2.3-3.9,3.7-5.6
		c10.2-12.4,23.5-10.6,28.6,4.6c7.2,21.5,15,42.9,19.1,65.3c2.8,15.1,2.5,30.3,2.3,45.6c-0.3,22-1.4,44-0.2,65.9
		c0.5,8,1.1,15.9,3.1,24.3c3.8-0.8,7.3-1.6,10.9-2.3c7.3-1.6,8-1.2,9.8,6c4.9,20.1,9.9,40.2,14.7,60.3c6.9,28.6,13.6,57.3,20.5,86.2
		c3.4-0.5,3.7-3.7,4.9-5.8c25.1-44.3,48.8-89.4,71-135.2c8.9-18.5,19.2-36.2,31.8-52.4c19.2-24.8,43.6-42.3,73.2-52.6
		c23.6-8.2,47.7-14.4,72.4-18.3c5.5-0.9,5.6-0.9,5.6-6.5c0-5.7-0.3-11.5,0.1-17.2c0.3-4.4-1.1-6.5-5.6-7.8
		c-16.1-5-30.8-12.9-43.8-23.7c-31.2-25.9-48.7-59.5-54.4-99.4c-2.1-14.7-1.4-29.4-1.3-44.2c0.2-32.5-0.1-65-1.4-97.4
		c-0.2-5.3-0.1-5.1-5.6-5c-18.9,0.3-35.3-5.9-48.5-19.7c-12.1-12.6-17.1-28.5-20.5-45c-0.7-3.4,1.6-5,5.1-3.9
		c1.7,0.5,3.2,1.5,4.8,2.2c11.4,4.9,23.3,7,35.8,6.5c3.4-0.1,4.7-1.3,5-4.8c7.2-72,64.1-120.1,122.5-133c32.8-7.3,65-4.9,96.3,7.4
		c3.7,1.4,7.1,1.6,10.9,1c81.2-12.9,148.3,42.1,161,111.8c3.6,19.6,2.7,39.3,1.3,59.1c-1.3,18.9-3.5,37.8-6.4,56.6
		c-0.3,2.2-0.9,4.3,2,5.7c17.4,8.2,19.6,27.6,14.6,42.6c-4.4,13.4-12.3,24.5-23.1,33.5c-4.1,3.4-5.7,7-5.8,12.1
		c-0.5,15.8,2.4,30.8,9,45.1c0.4,0.9,0.9,1.8,1.3,2.7c1.9,4.4,1.5,5.6-3,7.3c-8.8,3.5-17.6,2.7-26.5,0.3c-1.9-0.5-3.5-1.9-6.2-1.3
		c-0.4,9-0.9,18.1-1.2,27.3c-0.9,26.5,0.1,53,1.2,79.4c0.2,5.7,0.3,5.8,6.1,7.4c31.7,8.7,63.4,17.7,94.4,28.7
		c30.1,10.7,58.2,25.2,82.9,45.6c34.3,28.3,55.1,64.5,63.6,108.1c5.3,27.3,9.1,54.7,10.7,82.4c2.7,45.6,5,91.3,7.7,136.9
		c2,35.2,4.3,70.3,6.3,105.5c1.8,30.5,1.9,60.9-2.2,91.3c-2.7,20.5-9.3,39.8-17.3,58.7c-4.1,9.6-8.3,19.1-12.8,29.7c3.4,0,6,0,8.7,0
		c45.5,0,90.9,0,136.4,0c9.9,0,14.1,3,17.4,12c0,22,0,44,0,66c-3,8.5-7.3,11.9-15.8,12.1c-6,0.2-12,0.2-18,0
		c-3.1-0.1-4.8,0.7-4.5,4.1c0.2,1.7,0,3.5,0,5.2c0,101.7,0,203.4,0,305c0,10.6,1.1,9.2-9.1,9.2c-372.4,0-744.7,0-1117.1,0
		C1244.7,2078,1242,2077.9,1239.2,2077.8z M811.3,951.3c0.1-0.1,0.1-0.1,0.2-0.2c-0.1,0-0.2,0-0.3,0.1c2.1,1.1,2.9,3.3,4.4,5
		c9.4,10.5,21,16.9,35.2,17c15.3,0.2,13.5,1.2,14-13.5c0-0.4-0.5-0.8-0.9-1.5c-16.7,2-32.9-0.4-48.5-7.2
		C813.9,950.4,812.5,949.8,811.3,951.3z M1736.2,1664.4c17.2,0,34.5,0,51.7,0c5.7,0,5.9-0.1,5.8-5.9c-0.1-4.7-0.8-9.4-0.9-14.2
		c-0.6-16.2-0.7-32.4-1.3-48.7c-1.2-33.2-1.7-66.4-3.2-99.6c-0.7-16.2-0.7-32.4-1.3-48.7c-1.2-32.9-1.7-65.9-3.2-98.8
		c-0.7-16-0.7-31.9-1.3-47.9c-1.2-33.4-1.7-66.9-3.2-100.3c-0.7-16.2-0.5-32.4-1.4-48.7c-1.2-22.2-1.4-44.4-1.8-66.7
		c-0.1-4.3-1.2-7.5-4.1-10.7c-14.5-15.5-28.7-31.3-43.2-46.8c-5.6-6-11.6-11.7-17.5-17.5c-2.4-2.4-4.8-2.8-8.1-1.3
		c-13.7,6.4-26.4,14.2-37.6,24.3c-18.8,17-32.3,38-44,60.2c-9.1,17.2-17.2,35-25.9,52.4c-17.3,34.4-35.8,68.1-55,101.4
		c-3,5.3-3.8,10.2-2.4,16.3c6.8,28.1,13.1,56.4,19.5,84.6c0.4,1.7,0.7,3.4,0.8,5.2c0.1,1.7-0.8,3-2.4,3.3c-1.7,0.4-2.9-0.7-3.4-2.2
		c-0.7-2.1-1.2-4.3-1.7-6.5c-7-30.1-13.9-60.3-21-90.4c-12-51.2-24.1-102.5-37-153.5c-1.8-7-1.8-7-8.3-5.5
		c-39.4,8.7-78.9,17.4-118.3,26c-6.2,1.4-6.4,1.4-5.8,7.9c2,19.8,4,39.7,6.4,59.5c3.1,25.7,6.7,51.4,9.8,77.2
		c4.2,35.2,9.3,70.2,15.4,105.1c6.2,35.2,14.5,69.9,29.9,102.5c9.6,20.3,21.2,39,37.9,54.4c30,27.6,73.4,30.4,104.7,7.7
		c13.1-9.5,24.1-21,33.4-34.1c23.7-33,42-69.1,59.4-105.7c1.2-2.6,1.6-5.2,1.5-8c-0.2-7.7-0.8-15.5-1.1-23.2
		c-1-23.9-1.9-47.9-3.2-71.8c-0.9-18.5-1.3-36.9-2-55.4c-0.1-1.7-0.3-3.5-0.5-5.2c-1-9.5-0.7-19-0.9-28.5c-0.1-2.1,0.2-4.2,3-4.2
		c2.7,0,3.1,2,3.3,4.1c0.3,4.2,1,8.4,1.1,12.7c0.6,24.5,1.9,48.9,3,73.3c1,21.9,1.7,43.9,2.9,65.8c1.3,23.9,2.3,47.9,3.1,71.8
		c0.8,21.5,1.7,42.9,2.9,64.3c1.3,24.9,2.2,49.9,3.2,74.8c0.7,17.7,0.9,35.5,2,53.1c0.7,11,1,21.9,1.3,32.9c0.3,8.9,0.3,8.9,9.6,8.9
		C1703.2,1664.4,1719.7,1664.4,1736.2,1664.4z M2041.5,1663.1c1.7,1.7,3.3,1.3,4.7,1.3c13.2,0,26.5,0,39.7,0
		c49.7,0,99.4-0.1,149.1,0.1c5,0,7.7-1.4,9.6-6.1c4.6-11.6,9.9-22.9,14.6-34.5c8.4-21,14.6-42.6,15.5-65.2c0.8-19.9,2.3-39.8,1-59.8
		c-1.4-20.9-2-41.9-3.3-62.8c-1.4-23.9-2.9-47.8-4.5-71.7c-1.8-26.9-3.3-53.8-4.5-80.7c-0.7-16.5-1.8-32.9-3-49.3
		c-1.8-25.4-5.5-50.5-10.6-75.5c-8.9-43.7-31-79-66.1-106.3c-26.2-20.3-55.9-33.6-87-44.3c-4.1-1.4-6.9-0.4-10.1,2.4
		c-18.3,16.2-36.9,32.1-55.3,48.3c-11.4,10.1-22.6,20.4-33.9,30.6c-2.2,2-4,3.9-3.7,7.6c1.4,21.4,2.8,42.8,3.7,64.3
		c0.8,18.7,2,37.4,2.9,56.1c1.5,29.4,3,58.8,4.6,88.2c1,18.4,1.8,36.9,2.9,55.3c1.8,30.1,3.2,60.3,4.7,90.5c0.7,15,0.9,30,2,44.9
		c0.8,10.5,0.9,20.9,1.5,31.4c1.2,22.2,2.7,44.3,3.9,66.5c0.8,15.7,1.2,31.4,2,47.1c0.3,6.2,1.4,12.4,1.2,18.7
		c-0.1,3.2,1.4,4.1,4.5,4.4c4.7,0.5,6.6-1.9,8.3-5.7c16.2-36.2,32.5-72.4,48.9-108.6c1.2-2.6,1.6-5.2,1.4-8
		c-0.6-7.7-1-15.4-1.6-23.1c-1.1-14.9-2.1-29.9-3.3-44.8c-1.4-17.9-2.8-35.8-4.2-53.7c-1.2-15.4-2.1-30.9-3.3-46.3
		c-1.8-22.9-3.7-45.7-5.5-68.6c-1.5-18.9-2.9-37.8-4.3-56.7c-0.3-3.5-0.3-7-0.4-10.5c-0.1-2.2-0.4-5,2.6-5.4s3.4,2.1,3.7,4.5
		c0.3,2.2,0.8,4.4,1,6.7c1.5,20.1,3,40.3,4.5,60.4c2,26.9,4,53.7,6,80.6c2,26.6,4,53.2,6,79.8c1.7,23.6,2.7,47.3,5.2,70.9
		c0.9,8.8-1.1,16.1-4.5,23.7c-13.5,29.5-26.9,59.1-40.3,88.7C2045.7,1653.3,2043.6,1658.3,2041.5,1663.1z M1890.8,1058.7
		c-1.8,1.2-1.4,2.6-1.3,3.7c0.2,17,0.4,34,0.8,51c0.9,47.7,1.9,95.4,2.8,143.1c0,2,0.1,4-0.3,6c-0.2,1.3-1.4,2-2.8,2
		c-1.4,0.1-2.5-0.7-2.9-1.9c-0.4-1.4-0.4-3-0.5-4.4c-0.3-11-0.6-22-0.8-33c-0.9-48.5-1.8-96.9-2.7-145.4c-0.1-7.3-0.5-14.7-0.7-23.1
		c-2,1.8-3.1,2.8-4.2,3.7c-11.1,10.8-22.2,21.6-33.3,32.4c-8.4,8.2-16.8,16.4-25.3,24.5c-4,3.8-4.6,3.7-8.5-0.3
		c-2.8-2.9-5.4-5.9-8.1-8.9c-6.2-6.7-12.4-13.4-19.2-20.9c-1.1,3.4-0.7,5.8-0.7,8.1c1.5,50.4,3,100.9,4.5,151.3
		c1.7,59.2,3.4,118.4,5.2,177.5c2.3,77.4,4.8,154.8,7.1,232.2c0.3,9.1-0.3,7.9,8.2,8c67,0,133.9,0,200.9,0c2.4,0,5,0.6,7.7-0.9
		c-9.7-187.6-19.5-375.3-29.3-564.4c-2.9,2.5-4.6,3.8-6.2,5.3c-7,6.4-13.9,12.9-21,19.3c-4,3.6-4.9,3.5-8.7-0.3
		c-1.1-1.1-2.1-2.2-3.1-3.3c-17.6-18.7-35.2-37.5-52.9-56.2C1894,1062.1,1892.4,1060.4,1890.8,1058.7z M1136.7,1748.1
		c3.3,0,5.8,0,8.3,0c414.9,0,829.9,0,1244.8,0c2,0,4,0.1,6-0.1c6.8-0.6,9.9-3.7,10-10.5c0.1-8.7,0-17.5,0-26.2c0-10,0.1-20,0-30
		c-0.1-6.9-3.2-10-10-10.5c-1.2-0.1-2.5,0-3.7,0c-405.2,0-810.4,0-1215.6,0c-8.3,0-6.7-1.1-9.2,7.4c-7,23.5-15.3,46.4-29.4,66.8
		C1137.4,1745.6,1137.3,1746.4,1136.7,1748.1z M1888.6,607.6c3.3,12.8,3.8,26,6.7,38.8c4,18,14.3,31,30.9,39.1
		c1.3,0.6,2.7,1.3,4,2.1c1.2,0.7,1.6,1.9,1.3,3.2c-0.3,1.4-1.4,2.1-2.7,2.2c-1.5,0.1-3,0-4.5-0.2c-13.7-1.5-27-4.9-39.6-10.7
		c-12-5.5-20.7-14.6-25.6-27c-3.9-9.8-6.5-19.9-8.3-30.3c-1.5-8.7-4.4-16.9-9.1-24.4c-5-8-13.2-9.1-20.4-3c-1.3,1.1-2.5,2.5-3.6,3.8
		c-4.7,5.7-4.7,5.7-10.3,0.9c-15.7-13.6-37.5-12.8-52.1,1.9c-5,5-8.9,10.7-12.3,16.9c-4.2,7.6-8.3,15.4-12.5,23
		c-7.8,14.4-18.8,25.2-34.4,30.6c-2.9,1-3.6,2.5-3.5,5.5c0.6,15.7,0.7,31.5,1.2,47.2c0.8,22,1.3,44,0.3,65.9
		c-1.4,30.8,4.4,59.9,20.6,86.1c30.4,49.5,74.3,73.7,132.9,66.3c41.9-5.3,76.1-26,103.5-57.9c12.6-14.7,22.2-31.4,28.6-49.7
		c0.8-2.4,1.7-5.3,5-4.3c3.5,1.1,2.1,3.8,1.3,6.2c-3,8.5-6.4,16.8-11,24.6c-33.7,56.8-82.7,87.9-149.6,89
		c-7.3,0.1-14.5-0.9-21.6-1.9c-3.4-0.5-4.5,0.6-4.5,3.8c0.1,6.2,0.2,12.5-0.1,18.7c-0.2,3.7,1.4,6,4.3,8c4.7,3.3,9.2,6.9,13.8,10.3
		c21.3,16.1,42.7,32.1,63.9,48.4c3.5,2.7,6.2,3.1,9.9,0.7c6.3-4,12.9-7.6,19.4-11.3c29.2-16.8,58.3-33.8,87.7-50.4
		c4.4-2.5,6.1-5.1,5.5-10c-0.7-5.7-1-11.5-1.1-17.2c-1.1-45.5-0.5-90.9,3.8-136.3c0.6-5.8,2.4-8.6,8-10.7
		c19.7-7.6,34.4-20.9,42.4-40.9c2.7-6.7,3.6-13.6,2.5-20.6c-1.4-8.8-6.2-15.2-14.9-18c-11.5-3.6-23.6,0.9-29.8,11.2
		c-3.4,5.6-7.6,10.6-12.6,14.7c-9.7,8-20.8,11.8-33.3,10.7c-7-0.6-8-2.5-4.6-8.4c2.8-4.8,5.2-9.7,6.8-15c5.4-18,4-36-0.2-54
		c-0.5-2.2-1.5-3.6-4-3.6c-1.7-0.1-3.5-0.5-5.2-0.7c-21.7-2.3-37.2-13.3-46.7-32.9c-1.3-2.7-2.7-5.3-4.1-8
		c-3.7-7.4-7.3-14.8-11.9-21.6C1896,614.5,1893.1,610.4,1888.6,607.6z M911.9,1211.2c4.5,6.4,9,12.1,12.5,18.3
		c2.7,4.7,5.8,6.2,11.3,6.2c63-0.2,125.9-0.1,188.9-0.1c2.2,0,4.5,0.1,6.7-0.6c8.8-2.8,16.2,0.2,22.8,5.9c5.5,4.8,8,11.4,10.1,18
		c0.6,1.8,0.2,4.1,2.6,5.3c18.9-70.3,37.8-140.6,56.7-210.8c-3.4-1.4-6.1-0.8-8.8-0.8c-76.4,0-152.9,0-229.3,0
		c-19.2,0-38.5,0-57.7,0c-6.5,0-6.5,0-8.3,6.6c-5.1,18.8-10.2,37.6-15.2,56.3c-5.8,21.4-11.5,42.9-17.2,64.3c-0.6,2.1-2,4.1,0.4,6.1
		c8.3,7.1,15.9,15,23.5,24.3c1.1-5.7,4.4-5.9,8.2-5.9c70.7,0.1,141.4,0,212.1,0.1c1.7,0,3.5,0,5.2,0.4c1.2,0.3,2.2,1.2,2.4,2.6
		c0.2,1.8-0.9,3.1-2.3,3.3c-2.4,0.4-5,0.4-7.4,0.4c-69.2,0-138.4,0-207.6,0C918.5,1211.2,915.7,1211.2,911.9,1211.2z M1467.7,1021.3
		c0.2-4.7,0.5-9.5,0.6-14.2c0.4-19.8,0.8-39.6-4.4-58.8c-4.8-17.8-10.5-35.4-15.9-53.1c-0.3-1-0.6-1.9-1.1-2.8
		c-4-8.2-10.4-9-16.5-2.1c-3.5,4-5.6,8.8-6.9,14c-1.9,7.8-0.8,15.4,1,23c3.7,14.9,2.6,28.9-5.2,42.6c-6.8,11.9-9.1,25.3-8.2,39.1
		c0.1,1.2,0.1,2.5,0.2,3.7c0.1,1.8-0.2,3.6-2.5,3.9c-2.5,0.4-3.7-1.2-4.1-3.4c-0.4-2-0.5-4-0.5-6c-0.3-14.8,3.1-28.7,9.7-41.9
		c3.3-6.7,4.7-6.5-3.4-10.4c-14.6-7.1-28.8-15-42.4-23.9c-22.6-14.8-40.8-33.6-52.8-58c-1.5-3.1-3.1-6.3-4.8-9.3
		c-2.8-5-6.8-8.6-12-10.9c-3.8-1.7-7.7-1.9-11.6-0.1c-5.9,2.7-7.2,8.2-3.1,13.3c7.2,8.7,13.2,18.2,18.5,28.1
		c13,24,30.3,43.9,55.6,55.9c0.2,0.1,0.4,0.2,0.7,0.3c0.2,0.1,0.5,0.2,0.7,0.3c2,1,3.3,2.5,2.4,4.8c-1.1,2.6-3.2,1.9-5.1,1
		c-9-3.9-17.2-9.2-24.7-15.5c-15.5-13-27.6-28.8-37.1-46.6c-4-7.5-8.1-14.9-13.7-21.4c-4.2-4.8-8.9-8.8-15.2-10.5
		c-7-1.9-14.1,1.2-17.1,7.4c-2,4.1-1.5,5.5,2.9,7.1c5.1,1.7,9.4,4.6,13.3,8.2c5.4,5,9,11.3,12.3,17.8c2.9,5.8,5.7,11.7,8.9,17.3
		c11.4,19.9,29,33.3,48.3,44.9c1.9,1.2,3.9,2.2,5.8,3.5c1.5,1.1,2.5,2.5,1.3,4.4c-1.2,1.8-2.9,1.8-4.6,1c-1.3-0.6-2.6-1.4-3.9-2.2
		c-7-3.9-13.5-8.5-20.1-13.1c-17.3-12.3-30.3-28.1-39-47.5c-1.9-4.3-4.1-8.6-6.4-12.7c-3.4-6-8.2-10.7-14.3-13.9
		c-8.8-4.6-16.7-0.6-18.4,9.1c-0.5,2.7-0.4,5.5,0.4,8.2c1.7,6,3.9,11.8,6.4,17.6c1.2,2.9,2.5,4.4,6.1,3.4c5.8-1.7,10.7,0.6,14.8,4.9
		c3.8,4,7.1,8.4,10.1,13c3.9,6.1,7.8,12.2,11.9,18.2c8,11.8,18.1,21.2,30.6,28.1c1.3,0.7,2.7,1.4,3.9,2.3c1.4,1,1.8,2.4,0.9,3.9
		c-0.8,1.4-2.1,2.3-3.7,1.6c-1.6-0.6-3.2-1.5-4.7-2.3c-12.2-6.8-22.5-15.8-30.5-27.2c-5.4-7.8-10.5-15.8-15.6-23.8
		c-2.3-3.6-4.7-7.1-8.1-9.8c-5.9-4.7-12.9-2.8-15.9,4.2c-1.2,2.9-1.3,5.8-1.1,8.8c0.5,8.1,3.1,15.6,6.7,22.8
		c16.3,32.3,38.1,59.6,69.4,78.8c9.8,6,19.2,12.7,28,20c14.6,12.1,27.3,25.7,33.9,44c1.5,4,3.7,3.6,7,2.8
		c26.3-5.9,52.6-11.5,78.9-17.3c6.2-1.4,6.3-1.4,5.4-8C1466.9,1065.8,1467.1,1043.6,1467.7,1021.3z M1198.2,1177
		c-2,1.5-2.1,3.3-2.5,5c-8.1,30.1-16,60.2-24.3,90.3c-2.1,7.6-4,14.9-0.1,22.5c1.1,2.1,1.2,4.6-1.5,5.7c-3.2,1.4-3.8-1.4-4.6-3.4
		c-2.1-5.6-3.1-11.5-3.9-17.5c-1-7.7-1.9-15.4-4.7-22.7c-2-5.1-4.4-10.2-9.4-13.2c-4.9-3-10.1-4.6-15.6-1.8
		c-5.4,2.8-6.6,7.7-6.3,13.3c0.5,12.7,1,25.5,1.4,38.2c0.9,32,13.2,58.5,37.6,79.3c1.1,1,2.3,1.9,3.3,3c1.1,1.3,1.2,2.7,0,4.1
		s-2.5,1.6-3.9,0.6c-1.6-1.1-3.2-2.4-4.7-3.7c-4-3.7-8-7.5-11.9-11.2c-1.6,1.8-1.8,3.8-2.3,5.7c-5.5,20.7-11.1,41.4-16.7,62.1
		c-1.7,6.1-1.7,6.2-7.8,6.2c-8.2,0-16.5-0.1-24.7,0c-5.4,0.1-11.8-2-16,0.9c-3.9,2.8-4.1,9.4-5.8,14.3c-3.9,10.7-7.6,21.4-11.7,32.8
		c6.3,1,11.9,1.9,17.5,2.6c34.8,4.9,69.7,9.7,104.5,14.6c6.2,0.9,6.3,1,7-5.1c2.1-19.6,4.1-39.2,6.3-58.8
		c2.6-21.8,5.4-43.6,15.1-63.8c7.8-16,12.5-33.1,15.8-50.5c3.5-18.3,5.3-36.6,2.1-55.1c-1.4-8.1-3.3-16.1-5.8-24
		C1217.1,1223.6,1207.2,1200.6,1198.2,1177z M948.6,1274.2c2.5,6,4.9,11.5,7.2,17c3.6,8.4,1.7,7.1,10.7,7.1c46.2,0,92.4,0,138.6,0
		c2,0,4,0,6,0.2c1.7,0.2,2.7,1.2,2.7,3c0,1.7-0.9,2.9-2.6,3c-2.2,0.2-4.5,0.2-6.7,0.2c-44.7,0-89.4,0-134.1,0c-2.7,0-5.3,0-7.9,0
		c-0.6,3.1,0.9,5,1.7,7c3.7,9.5,7.5,19,11.2,28.6c2.9,7.4,1.6,6,9,6c36,0.1,71.9,0,107.9,0c2.2,0,4.5,0,6.7,0.3
		c1.3,0.2,2.1,1.3,2.2,2.6c0.1,1.7-0.8,3-2.5,3.2c-2.2,0.3-4.5,0.2-6.7,0.2c-34.5,0-68.9,0-103.4,0c-2.4,0-4.9-0.5-7.6,0.6
		c1.3,6.5,4.2,12.3,6.5,18.2c2.6,6.9,0.9,6.1,8.9,6.1c29.2,0.1,58.5,0,87.7,0c2,0,4,0,6,0.1c1.7,0.1,2.8,1.1,2.8,2.8
		c0,1.7-0.8,2.9-2.5,3.2c-2,0.2-4,0.2-6,0.2c-25.2,0-50.5,0-75.7,0c-5.2,0-10.5,0-15.8,0c0.1,1.1,0,1.9,0.3,2.6
		c5.1,14.3,10.4,28.6,15.4,43c1,3,3,3.4,5.7,3.4c34.2-0.1,68.4-0.1,102.7,0c3.4,0,4.7-1.2,5.6-4.5c5.8-22.2,11.8-44.3,17.9-66.5
		c0.8-2.9,0.4-5.1-1.3-7.6c-11.5-16.7-17.1-35.4-18.6-55.4c-0.5-7.2-0.8-14.5-1-21.7c-0.1-2.8-1-4.2-4-4c-1.2,0.1-2.5,0-3.7,0
		c-52.2,0-104.4,0-156.6,0C953.3,1273.4,951.2,1273,948.6,1274.2z M1956.1,1118.5c42.1-39,83.8-77.1,126.9-113.3
		c-0.8-2-1.9-1.9-2.8-2.2c-22.1-7-44.5-13.1-66.7-19.5c-4.2-1.2-7.4-0.7-11.2,1.5c-35.1,20.5-70.4,40.7-105.6,61.1
		c-1.7,1-3.7,1.5-5,3.9C1912.9,1072.5,1934.2,1095.2,1956.1,1118.5z M1880.4,1049.1c-0.8-0.9-1.2-1.5-1.8-2
		c-26.7-20.2-53.4-40.3-80.1-60.6c-2.4-1.8-4.7-2.3-7.6-1.7c-11.5,2.3-23.1,4.3-34.5,6.8c-13.8,3.1-27.5,6.6-41.5,12.4
		c34.8,35.2,67.6,71.4,100.7,107.9C1837.4,1090.8,1858.9,1069.9,1880.4,1049.1z M933,1242.8c3.3,6.5,6.6,11.8,8.9,17.5
		c2,5.2,4.9,6.8,10.5,6.8c52.9-0.2,105.8-0.1,158.7-0.1c1,0,2-0.1,3,0c3.7,0.4,5.5-0.6,5.1-4.9c-0.6-6.3-0.7-12.7,1.9-19.3
		C1058.1,1242.8,996,1242.8,933,1242.8z M1012.3,1439.8c9.9,27.7,19.4,54.5,29.3,82.3c7.5-16.6,28.1-74.5,29.4-82.3
		C1051.8,1439.8,1032.7,1439.8,1012.3,1439.8z M815.3,942.5c0.5,1.9,1.6,2,2.4,2.4c13.9,6.7,28.6,7.8,43.7,6.9c3.8-0.2,4.1-1.4,4-7
		c-0.1-4.1-2.5-3.5-5-3.3C845.5,943,830.6,943.3,815.3,942.5z"/>
	<path class="st1" d="M522.7,998.6c-2,0.4-4-0.1-5.9-0.5c2.9-24.9-5.1-46.3-21.3-64.8c-8.4-9.6-17.2-18.8-25.5-28.5
		c-26.8-31-47.3-65.5-58.6-105.1c-9.3-32.5-11.6-65.2-3.1-98.3c9.2-35.9,29.5-64.6,57.5-88.3c32-27.1,69.3-43,110.2-50.9
		c26-5,52.3-7.6,78.6-10.6c20.6-2.4,41.1-5.5,61.4-9.5c23.5-4.7,44.1-15.5,62.9-30.1c8.7-6.8,9.2-6.7,14.8,3.1
		c11,19.2,13.4,39.4,7.2,60.7c-0.7,2.4-1.5,4.7-2.2,7.1c2.1,1.7,4,0.5,5.7-0.1c9.4-3.2,17.5-8.4,24.3-15.7c5.1-5.5,6.3-5.4,10.4,1.1
		c10.3,16.5,13.1,34.4,8.9,53.2c-4.4,19.7-13.4,36.9-28.4,50.7c-1.1-0.6-2-1.5-3.2-1.8c-3.3-0.8-4.7,0.5-4.1,3.9
		c0.3,1.7,0.9,3.3,1.3,4.9c-7.2,5.4-14.2,11-22.2,15.2c-17.2,8.9-35.6,12.7-54.7,13.7c-23.5,1.1-46.4-1-67.8-11.9
		c-0.6-0.3-1.4-0.5-2.1,0.9c0.1,0.7,0,2,0.2,3.2c4,19,13.9,34,30.5,44.4c1.3,0.8,2.7,1.3,3.9,2.2c2.4,1.9,2.1,4.5-0.6,5.9
		c-1.3,0.7-2.8,1-4.3,1.4c-20.9,5.9-41,3.3-60.4-6.1c-1.9-0.9-3.5-2.9-6.5-2.4c-0.9,12.4-0.9,24.8-0.3,37.2
		c1,19.7,2.9,39.3,8.9,58.3c2.6,8.1,5.8,15.9,9.2,23.7c1.8,4.2,0.4,6.1-4.2,6c-1.2,0-2.5-0.3-3.7-0.5c-23.2-3.2-40.5-15.9-54.1-34.2
		c-3.9-5.2-7.3-10.7-8.9-17.1c1.4-2.8,0.9-5-1.5-7.2c-9.2-8.6-19.6-14.3-32.3-15.8c-11.7-1.3-21.2,2.9-27.9,12.4
		c-6.1,8.7-8.3,18.6-6.3,29.2c3.7,18.9,15,32.8,29.7,44.3c12.2,9.4,26.3,13.9,41.3,15.7c-1.8,19.8-5,39.4-11.8,58.2
		c-6.7,18.4-18.5,32.1-36.8,39.7C528.2,996.4,525.4,997.5,522.7,998.6z"/>
	<path class="st3" d="M373.9,1214.4c2.6-4.9,6.7-8.7,10.3-12.8c26.7-30.5,55.5-58.9,86.4-85.1c2.9-2.5,5.9-4.1,9.9-4.7
		c17.8-2.6,35.7-3.8,53.7-4.5c33-1.1,65.8,1.1,98.6,4.7c40.5,4.4,80.6,10.8,120.3,20c34.1,7.9,67.3,18.6,97.9,36.3
		c34.7,20.1,60.7,48.3,79.3,83.7c16.1,30.6,28.1,62.9,40.6,95c25.7,65.6,48.2,132.3,71.9,198.5c5.1,14.1,10,28.2,15.1,42.3
		c1,2.6,1.5,6.9,5.5,5.6c4.1-1.4,1.7-5,0.7-7.6c-5.8-16.5-11.6-33-17.6-49.4c-1.3-3.5-1.1-6.4,0.4-9.9c3.6-8.2,6.6-16.7,9.8-25.1
		c2.8-7.3,2.7-7.4,10.7-6.3c14.8,2,29.7,4.1,44.5,6.2c23.7,3.3,47.4,6.7,71.2,10c5.9,0.8,6.1,0.8,5.5,6.2
		c-6.2,54.6-13.6,109-29,161.9c-5.4,18.5-11.9,36.5-21.7,53.3c-23.1,39.3-58.1,56.4-102.7,54.3c-23.5-1.1-44.5-10.3-63.7-23.7
		c-23.2-16.3-41.4-37.5-57.8-60.3c-21.3-29.5-37.5-61.9-52.4-94.9c-5.1-11.4-9.8-23-14.6-34.5c-2.3-5.5-4.1-7.1-6.2-5.5
		c-3.4,2.6-0.8,5.5,0.2,8c15.9,39.7,33.4,78.6,56.7,114.6c16.3,25.3,34.6,48.9,57.9,68.4c13.7,11.5,28.7,20.8,45.4,27.1
		c-2.1,1.9-4.8,1.2-7.2,1.2c-50.5,0-100.9,0-151.4,0c-1.2,0-2.5,0-3.7,0c-2.4,0-3.6-1-3.8-3.5c-1-9.7-2-19.3-3.1-28.9
		c-1.3-11.1-2.8-22.2-4-33.3c-1.2-10.6-2.2-21.3-3.4-31.9c-1.3-11.9-2.8-23.7-4.1-35.6c-1.2-10.6-2.2-21.3-3.4-31.9
		c-1.3-11.9-2.8-23.7-4.1-35.6c-1.2-10.6-2.2-21.3-3.4-31.9c-1.3-11.9-2.8-23.7-4.1-35.6c-1.2-10.6-2.2-21.3-3.4-31.9
		c-1.3-11.9-2.8-23.7-4.1-35.6c-1.2-10.9-2.5-21.8-3.4-32.7c-4-48.9-19.1-93.5-50.7-131.8c-19.5-23.6-42.4-42.9-70.2-56
		c-16.8-7.9-34.3-13.1-52.8-15.6c-7.5-1-14.9-1.2-22.4-1.2C523.3,1214.4,448.6,1214.4,373.9,1214.4z M844.9,1204.6
		c-0.1-1.6-1.3-2.9-2.9-2.8c-1.2,0.1-2.4,0.6-3.6,1.1c-31,13.5-56,34.3-75.2,62.1c-0.6,0.8-1.1,1.7-1.6,2.5c-1,1.8-0.8,3.4,1,4.5
		c1.9,1.2,3.3,0.3,4.5-1.1c0.9-1.2,1.7-2.4,2.6-3.7c17.4-25.3,40.2-44.1,68.1-57c1.6-0.7,3.2-1.3,4.8-2.2
		C844,1207.4,845,1206.3,844.9,1204.6z"/>
	<path class="st1" d="M1736.2,1664.4c-16.5,0-33,0-49.5,0c-9.3,0-9.3,0-9.6-8.9c-0.4-11-0.6-21.9-1.3-32.9
		c-1.2-17.7-1.3-35.4-2-53.1c-1-24.9-1.9-49.9-3.2-74.8c-1.1-21.4-2.1-42.9-2.9-64.3c-0.8-24-1.8-47.9-3.1-71.8
		c-1.2-21.9-2-43.9-2.9-65.8c-1.1-24.4-2.4-48.9-3-73.3c-0.1-4.2-0.7-8.4-1.1-12.7c-0.2-2.1-0.6-4.1-3.3-4.1c-2.8,0-3,2.1-3,4.2
		c0.3,9.5-0.1,19,0.9,28.5c0.2,1.7,0.4,3.5,0.5,5.2c0.7,18.5,1.1,36.9,2,55.4c1.2,23.9,2.2,47.9,3.2,71.8c0.3,7.7,0.9,15.4,1.1,23.2
		c0.1,2.8-0.3,5.4-1.5,8c-17.4,36.6-35.7,72.7-59.4,105.7c-9.4,13.1-20.4,24.6-33.4,34.1c-31.3,22.8-74.7,20-104.7-7.7
		c-16.7-15.4-28.3-34.1-37.9-54.4c-15.4-32.6-23.7-67.2-29.9-102.5c-6.2-34.9-11.2-69.9-15.4-105.1c-3.1-25.7-6.7-51.4-9.8-77.2
		c-2.4-19.8-4.4-39.7-6.4-59.5c-0.7-6.5-0.4-6.5,5.8-7.9c39.4-8.7,78.9-17.4,118.3-26c6.5-1.4,6.6-1.5,8.3,5.5
		c12.9,51,24.9,102.3,37,153.5c7.1,30.1,14,60.3,21,90.4c0.5,2.2,1,4.4,1.7,6.5c0.5,1.5,1.7,2.6,3.4,2.2c1.6-0.4,2.5-1.7,2.4-3.3
		c-0.1-1.7-0.4-3.5-0.8-5.2c-6.4-28.2-12.7-56.4-19.5-84.6c-1.5-6.1-0.7-11,2.4-16.3c19.2-33.4,37.7-67,55-101.4
		c8.7-17.4,16.8-35.2,25.9-52.4c11.7-22.2,25.1-43.2,44-60.2c11.2-10.1,23.9-18,37.6-24.3c3.3-1.5,5.7-1.1,8.1,1.3
		c5.8,5.8,11.9,11.5,17.5,17.5c14.5,15.5,28.7,31.3,43.2,46.8c3,3.2,4.1,6.4,4.1,10.7c0.4,22.2,0.7,44.5,1.8,66.7
		c0.9,16.2,0.6,32.5,1.4,48.7c1.5,33.4,2,66.9,3.2,100.3c0.6,16,0.6,32,1.3,47.9c1.4,32.9,1.9,65.9,3.2,98.8
		c0.6,16.2,0.6,32.5,1.3,48.7c1.5,33.2,2,66.4,3.2,99.6c0.6,16.2,0.7,32.5,1.3,48.7c0.2,4.7,0.8,9.5,0.9,14.2c0.1,5.8,0,5.9-5.8,5.9
		C1770.7,1664.4,1753.4,1664.4,1736.2,1664.4z"/>
	<path class="st1" d="M2041.5,1663.1c2-4.7,4.1-9.7,6.3-14.7c13.4-29.6,26.8-59.1,40.3-88.7c3.5-7.6,5.4-14.9,4.5-23.7
		c-2.5-23.6-3.5-47.3-5.2-70.9c-1.9-26.6-4-53.2-6-79.8c-2-26.9-4-53.7-6-80.6c-1.5-20.1-3-40.3-4.5-60.4c-0.2-2.2-0.7-4.4-1-6.7
		c-0.3-2.3-0.7-4.9-3.7-4.5s-2.6,3.2-2.6,5.4c0.1,3.5,0.2,7,0.4,10.5c1.4,18.9,2.8,37.8,4.3,56.7c1.8,22.9,3.7,45.7,5.5,68.6
		c1.2,15.4,2.1,30.9,3.3,46.3c1.3,17.9,2.8,35.8,4.2,53.7c1.1,14.9,2.2,29.9,3.3,44.8c0.5,7.7,1,15.4,1.6,23.1
		c0.2,2.8-0.2,5.4-1.4,8c-16.4,36.2-32.7,72.4-48.9,108.6c-1.7,3.8-3.6,6.2-8.3,5.7c-3.1-0.3-4.6-1.2-4.5-4.4
		c0.2-6.3-0.8-12.4-1.2-18.7c-0.8-15.7-1.2-31.4-2-47.1c-1.2-22.2-2.7-44.3-3.9-66.5c-0.6-10.5-0.7-20.9-1.5-31.4
		c-1.2-14.9-1.3-29.9-2-44.9c-1.5-30.2-2.9-60.3-4.7-90.5c-1.1-18.4-1.9-36.9-2.9-55.3c-1.6-29.4-3.1-58.8-4.6-88.2
		c-0.9-18.7-2.1-37.4-2.9-56.1c-1-21.4-2.3-42.8-3.7-64.3c-0.2-3.6,1.5-5.5,3.7-7.6c11.3-10.2,22.5-20.6,33.9-30.6
		c18.4-16.2,37-32.1,55.3-48.3c3.2-2.8,6-3.8,10.1-2.4c31.1,10.7,60.8,23.9,87,44.3c35.2,27.3,57.2,62.6,66.1,106.3
		c5.1,25,8.8,50.1,10.6,75.5c1.2,16.4,2.2,32.8,3,49.3c1.2,26.9,2.7,53.8,4.5,80.7c1.6,23.9,3.1,47.8,4.5,71.7
		c1.3,20.9,1.9,41.9,3.3,62.8c1.4,20-0.2,39.9-1,59.8c-0.9,22.6-7.1,44.3-15.5,65.2c-4.6,11.6-10,22.9-14.6,34.5
		c-1.9,4.7-4.6,6.1-9.6,6.1c-49.7-0.2-99.4-0.1-149.1-0.1c-13.2,0-26.5,0-39.7,0C2044.8,1664.3,2043.3,1664.8,2041.5,1663.1z"/>
	<path class="st4" d="M1890.8,1058.7c1.6,1.7,3.2,3.4,4.9,5.1c17.6,18.7,35.3,37.5,52.9,56.2c1,1.1,2,2.2,3.1,3.3
		c3.8,3.7,4.7,3.8,8.7,0.3c7-6.4,14-12.9,21-19.3c1.6-1.5,3.3-2.8,6.2-5.3c9.8,189.1,19.6,376.8,29.3,564.4
		c-2.7,1.5-5.2,0.9-7.7,0.9c-67,0-133.9,0-200.9,0c-8.5,0-7.9,1.2-8.2-8c-2.3-77.4-4.8-154.8-7.1-232.2
		c-1.8-59.2-3.5-118.4-5.2-177.5c-1.5-50.4-3-100.9-4.5-151.3c-0.1-2.4-0.4-4.8,0.7-8.1c6.9,7.4,13,14.2,19.2,20.9
		c2.7,2.9,5.3,6,8.1,8.9c3.9,4,4.5,4.1,8.5,0.3c8.5-8.1,16.9-16.3,25.3-24.5c11.1-10.8,22.2-21.6,33.3-32.4c1-1,2.1-1.9,4.2-3.7
		c0.3,8.4,0.6,15.8,0.7,23.1c0.9,48.5,1.8,96.9,2.7,145.4c0.2,11,0.5,22,0.8,33c0,1.5,0.1,3,0.5,4.4c0.3,1.3,1.4,2,2.9,1.9
		c1.4-0.1,2.6-0.7,2.8-2c0.3-1.9,0.3-4,0.3-6c-0.9-47.7-1.9-95.4-2.8-143.1c-0.3-17-0.5-34-0.8-51
		C1889.4,1061.3,1889,1059.9,1890.8,1058.7z M1921.5,1191.8c-7.3-0.1-13.4,5.8-13.5,13s5.9,13.3,13.2,13.3
		c7.3,0.1,13.4-5.8,13.5-13.1C1934.7,1197.9,1928.8,1191.9,1921.5,1191.8z M1932.6,1141.7c0.1-7.3-5.7-13.4-13-13.5
		s-13.3,5.7-13.4,13.1c-0.1,7.5,5.5,13.3,12.9,13.4C1926.5,1154.8,1932.4,1149.1,1932.6,1141.7z"/>
	<path class="st4" d="M522.7,998.6c2.7-1.1,5.5-2.2,8.2-3.4c18.3-7.6,30.2-21.3,36.8-39.7c6.8-18.8,10-38.4,11.8-58.2
		c1.7-0.1,3.5-0.1,5.2-0.3c2.7-0.3,6.9,1.2,6.7-3.5c-0.2-4.1-4-2.8-6.5-2.9c-24.5-0.8-44.2-11-59-30.4c-7.3-9.6-11.2-20.6-10.8-32.7
		c0.5-17.6,14.7-28.5,31.6-24.4c8.7,2.1,16.1,6.5,22.6,12.6c2.1,1.9,3.9,3.9,7.1,3.2c1.5,6.5,5,11.9,8.9,17.1
		c13.6,18.3,30.9,31,54.1,34.2c1.2,0.2,2.5,0.5,3.7,0.5c4.5,0.1,6-1.7,4.2-6c-3.3-7.8-6.6-15.6-9.2-23.7c-6-19-7.9-38.6-8.9-58.3
		c-0.6-12.4-0.6-24.8,0.3-37.2c3-0.4,4.5,1.5,6.5,2.4c19.4,9.4,39.5,12,60.4,6.1c1.4-0.4,2.9-0.7,4.3-1.4c2.7-1.4,3-3.9,0.6-5.9
		c-1.2-0.9-2.6-1.4-3.9-2.2c-16.5-10.4-26.5-25.4-30.5-44.4c-0.2-1.2-0.2-2.4-0.2-3.2c0.7-1.4,1.6-1.2,2.1-0.9
		c21.4,10.9,44.3,13,67.8,11.9c19.1-0.9,37.6-4.7,54.7-13.7c8-4.2,15-9.8,22.2-15.2c6,13,8.7,27,11.9,40.8
		c4.5,19.9,7.4,40.2,13.4,59.9c2.6,8.4,5.8,16.5,9.8,24.3c7,13.6,17.6,23.5,31.9,29.1c0.5,0.2,0.9,0.3,1.4,0.5
		c17.4,6.8,20.9,19.4,8.9,33.9c-7.2,8.7-14.2,17.4-18.7,27.8c-4.5,10.5-6.2,21.5-6.9,32.8c-0.4,6.6-0.4,6.8-6.5,7.2
		c-8.7,0.6-17.4,1.2-26.2,0.8c-9.2-0.4-18.5-0.5-27.7-0.6c-6.5,0-7,0.9-4.9,6.8c7,19.9,28.3,40.4,61.4,37.2c0.8,2.7-0.2,5.2-1,7.7
		c-11.1,35.4-35.2,57.8-69.7,69.7c-25.1,8.7-50.9,9.2-76.9,5.2c-26.8-4.1-52.3-12.5-77.4-22.6c-1.6-0.6-3.2-1.4-4.9-1.9
		c-1.6-0.5-3-0.3-3.8,1.4c-0.7,1.5-0.5,3.1,0.8,4.1c1.2,0.9,2.6,1.4,4,2c25.4,10.5,51.5,18.9,78.7,23.4c5.1,0.8,10.4,0.7,16.1,2.5
		c-2.6,11.9-5.1,23.7-7.6,35.6c-0.2,1-0.5,1.9-0.7,2.9c-2.1,9-0.3,8.5-10.6,6.8c-53.2-9-106.6-16.1-160.8-15.8
		c-20.7,0.1-41.4,1.3-62,4.1c-0.9,0.1-1.9,0-2.9,0c0-0.5,0-0.8,0.1-1c20.4-30.7,29.6-65.7,39-100.7
		C522.4,1001.6,522.5,1000.1,522.7,998.6z M801.4,801.3c-0.3-4.8-1.8-11.1-4.2-17.1c-0.5-1.4-1.2-2.8-2.2-3.8
		c-3-3.5-6.8-2.8-8.9,1.3c-0.8,1.6-0.9,3.3-1,5.1c-0.3,6.9,1.2,13.3,4.2,19.5c2.4,5,5.3,7.2,8.1,6.4
		C800.3,811.9,801.6,808.6,801.4,801.3z M536.7,834.7c-0.7-0.1-1.5-0.2-2.2-0.2c-2.4-0.2-4.9-0.1-5.1,2.8c-0.1,2.7,2.1,3.6,4.6,3.7
		c2.5,0.2,5,0.4,7.4,0.8c8.1,1.3,15.9,3.7,23.4,7.2c2,1,4,2.3,6.2,0.7c2.3-1.6,1.4-4.1-2.3-6C558.6,838.7,547.9,835.6,536.7,834.7z"
		/>
	<path class="st0" d="M1136.7,1748.1c0.6-1.8,0.7-2.5,1.1-3.1c14.1-20.4,22.4-43.3,29.4-66.8c2.5-8.4,0.9-7.4,9.2-7.4
		c405.2,0,810.4,0,1215.6,0c1.2,0,2.5-0.1,3.7,0c6.8,0.5,9.9,3.6,10,10.5c0.1,10,0,20,0,30c0,8.7,0.1,17.5,0,26.2
		c-0.1,6.8-3.2,10-10,10.5c-2,0.2-4,0.1-6,0.1c-414.9,0-829.9,0-1244.8,0C1142.5,1748.1,1140,1748.1,1136.7,1748.1z"/>
	<path class="st3" d="M1888.6,607.6c4.5,2.8,7.4,6.9,10.2,11c4.7,6.8,8.2,14.3,11.9,21.6c1.3,2.7,2.8,5.3,4.1,8
		c9.5,19.6,25.1,30.6,46.7,32.9c1.7,0.2,3.5,0.7,5.2,0.7c2.5,0.1,3.5,1.4,4,3.6c4.2,18,5.5,36,0.2,54c-1.6,5.3-4,10.2-6.8,15
		c-3.4,5.8-2.4,7.8,4.6,8.4c12.6,1.1,23.7-2.7,33.3-10.7c5-4.2,9.2-9.1,12.6-14.7c6.3-10.3,18.4-14.8,29.8-11.2
		c8.7,2.8,13.5,9.2,14.9,18c1.1,7,0.2,13.9-2.5,20.6c-8.1,20-22.7,33.2-42.4,40.9c-5.6,2.2-7.4,4.9-8,10.7
		c-4.4,45.3-4.9,90.8-3.8,136.3c0.1,5.7,0.4,11.5,1.1,17.2c0.6,4.9-1.1,7.6-5.5,10c-29.3,16.6-58.5,33.6-87.7,50.4
		c-6.5,3.7-13.1,7.3-19.4,11.3c-3.8,2.4-6.4,2-9.9-0.7c-21.2-16.3-42.6-32.3-63.9-48.4c-4.6-3.5-9.1-7.1-13.8-10.3
		c-2.9-2-4.4-4.3-4.3-8c0.3-6.2,0.1-12.5,0.1-18.7c0-3.2,1.1-4.3,4.5-3.8c7.2,1,14.3,2,21.6,1.9c66.9-1,115.8-32.2,149.6-89
		c4.6-7.7,8.1-16,11-24.6c0.8-2.4,2.2-5.1-1.3-6.2c-3.3-1-4.1,1.9-5,4.3c-6.4,18.4-15.9,35-28.6,49.7
		c-27.4,31.9-61.6,52.6-103.5,57.9c-58.6,7.4-102.5-16.9-132.9-66.3c-16.2-26.3-21.9-55.4-20.6-86.1c1-22,0.4-44-0.3-65.9
		c-0.5-15.7-0.6-31.5-1.2-47.2c-0.1-3,0.6-4.5,3.5-5.5c15.7-5.4,26.7-16.2,34.4-30.6c4.2-7.7,8.3-15.4,12.5-23
		c3.4-6.1,7.4-11.9,12.3-16.9c14.6-14.7,36.4-15.5,52.1-1.9c5.6,4.8,5.5,4.8,10.3-0.9c1.1-1.3,2.3-2.7,3.6-3.8
		c7.1-6.1,15.3-5,20.4,3c4.7,7.5,7.6,15.7,9.1,24.4c1.8,10.4,4.4,20.5,8.3,30.3c4.9,12.5,13.6,21.5,25.6,27
		c12.6,5.8,25.8,9.1,39.6,10.7c1.5,0.2,3,0.3,4.5,0.2c1.3-0.1,2.4-0.9,2.7-2.2c0.3-1.3-0.2-2.5-1.3-3.2c-1.3-0.8-2.6-1.4-4-2.1
		c-16.6-8-26.9-21.1-30.9-39.1C1892.4,633.6,1891.9,620.4,1888.6,607.6z M1800.3,846.7c-8.7,0-17.1-0.1-25.6,0
		c-4.3,0.1-5.6,1.8-4,5.6c6.7,15.1,16.5,27.3,32.3,33.6c28.6,11.4,61.2-6.6,68.9-37.8c2.1-8.4,0.8-9.8-7.9-8.1
		C1842.8,844.1,1821.5,845.7,1800.3,846.7z M1808.5,810.8c0,0.1,0,0.2,0,0.3c-4.7,0-9.5,0.1-14.2,0c-5.3-0.2-10.4-1.5-15.3-3.5
		c-6.8-2.7-8.8-7.5-6.2-14.4c1.7-4.4,3.8-8.7,5.9-12.9c6.9-13.8,14.2-27.5,19.1-42.2c0.6-1.7,1.2-3.3,1.6-5c0.6-2.1,0.5-4.2-1.9-4.9
		s-3.6,1-4.4,3c-0.2,0.5-0.4,0.9-0.5,1.4c-5.2,17-13.9,32.5-21.7,48.4c-1.9,3.8-3.7,7.7-5,11.7c-2.8,8.6-0.1,15.1,7.9,19.5
		c1.7,1,3.6,1.8,5.5,2.4c14.6,4.6,29.5,4.3,44.5,2.5c2.3-0.3,3.9-1.5,3.6-3.9c-0.3-2.7-2.6-2.5-4.6-2.4
		C1817.9,810.9,1813.2,810.8,1808.5,810.8z M1873.3,726.3c-0.3-3.8-0.6-7.5-1.6-11.2c-0.6-2.2-1.9-4.2-4.5-4.5
		c-2.9-0.3-4.8,1.4-5.7,3.9c-3.2,8.2-3.5,16.5-0.7,24.9c0.8,2.4,2.2,4.7,5.1,4.8c3.4,0,4.8-2.7,5.4-5.4
		C1872.2,734.7,1872.6,730.5,1873.3,726.3z M1753.4,725.2c-0.2-3.2,0.1-6.5-1-9.6c-0.9-2.4-1.9-4.8-4.9-5c-2.9-0.2-4.7,1.7-5.6,4.1
		c-3,8.2-3.2,16.6-0.5,24.9c0.8,2.5,2.3,4.7,5.2,4.5c2.9-0.1,4.3-2.4,5-4.9C1753,734.7,1753.6,730,1753.4,725.2z M2018.2,767.7
		c0.4-0.2,1.3-0.3,1.8-0.8c6.6-7.7,14.4-13.6,24.4-16.3c1.5-0.4,2.2-2,1.8-3.6c-0.4-1.8-1.8-2.4-3.4-2.3c-1.7,0.2-3.4,0.5-5.1,1.1
		c-8.4,3-15.2,8.2-21,14.9c-0.8,0.9-1.6,2-2,3.1C2014,765.9,2015.8,767.9,2018.2,767.7z"/>
	<path class="st0" d="M911.9,1211.2c3.8,0,6.5,0,9.3,0c69.2,0,138.4,0,207.6,0c2.5,0,5,0,7.4-0.4c1.4-0.3,2.6-1.6,2.3-3.3
		c-0.2-1.4-1.1-2.4-2.4-2.6c-1.7-0.3-3.5-0.4-5.2-0.4c-70.7,0-141.4,0-212.1-0.1c-3.8,0-7.1,0.2-8.2,5.9
		c-7.6-9.2-15.2-17.2-23.5-24.3c-2.4-2-1-4.1-0.4-6.1c5.7-21.5,11.4-42.9,17.2-64.3c5-18.8,10.1-37.6,15.2-56.3
		c1.8-6.5,1.8-6.6,8.3-6.6c19.2,0,38.5,0,57.7,0c76.4,0,152.9,0,229.3,0c2.7,0,5.4-0.6,8.8,0.8c-18.9,70.2-37.8,140.5-56.7,210.8
		c-2.3-1.2-2-3.5-2.6-5.3c-2.2-6.7-4.6-13.3-10.1-18c-6.6-5.7-14-8.7-22.8-5.9c-2.2,0.7-4.4,0.6-6.7,0.6c-63,0-125.9-0.1-188.9,0.1
		c-5.4,0-8.6-1.5-11.3-6.2C920.9,1223.3,916.4,1217.7,911.9,1211.2z M921.9,1172.5c28.1,0,55,0,81.9,0.1c3.3,0,4-1.8,4.7-4.5
		c7.3-27.2,14.7-54.4,22-81.6c0.2-0.9,0.2-1.9,0.2-3.1c-1.2-0.2-2.1-0.4-3.1-0.4c-25.7,0-51.4,0.1-77.1-0.1c-3.9,0-5.1,1.5-6,4.9
		c-3.6,14-7.4,27.9-11.2,41.9C929.7,1143.6,925.9,1157.6,921.9,1172.5z M1090.6,1138c-16.7,0-33.4-0.1-50.1,0.1
		c-2.9,0-7.6-1.6-7.6,3.3c0,4.3,4.4,3,7.1,3c33.4,0.1,66.8,0.1,100.2,0c2.7,0,7,1.1,6.9-3.3c-0.2-4.2-4.4-3-7.2-3.1
		C1123.5,1138,1107,1138,1090.6,1138z M1068.2,1117.5c7.5,0,14.9,0,22.4,0c2.5,0,5.6,0.2,5.7-3.1c0.1-3.5-3-3.3-5.5-3.3
		c-0.5,0-1,0-1.5,0c-14.2,0-28.4,0-42.5,0c-1.5,0-3,0-4.5,0.2c-1.7,0.3-2.5,1.6-2.4,3.2c0.1,1.4,0.8,2.4,2.2,2.6
		c1.7,0.3,3.5,0.4,5.2,0.4C1054.3,1117.5,1061.2,1117.5,1068.2,1117.5z"/>
	<path class="st3" d="M1467.7,1021.3c-0.6,22.2-0.8,44.5,2.3,66.6c0.9,6.6,0.8,6.7-5.4,8c-26.3,5.8-52.6,11.5-78.9,17.3
		c-3.2,0.7-5.5,1.2-7-2.8c-6.6-18.2-19.3-31.9-33.9-44c-8.9-7.3-18.2-14-28-20c-31.3-19.2-53.1-46.5-69.4-78.8
		c-3.6-7.2-6.2-14.7-6.7-22.8c-0.2-3-0.1-6,1.1-8.8c3-7,9.9-8.9,15.9-4.2c3.4,2.7,5.7,6.2,8.1,9.8c5.2,8,10.2,16,15.6,23.8
		c8,11.4,18.3,20.4,30.5,27.2c1.5,0.9,3.1,1.7,4.7,2.3c1.7,0.7,2.9-0.2,3.7-1.6c0.9-1.5,0.5-2.9-0.9-3.9c-1.2-0.9-2.5-1.6-3.9-2.3
		c-12.5-6.9-22.6-16.4-30.6-28.1c-4.1-6-8-12.1-11.9-18.2c-3-4.6-6.3-9-10.1-13c-4.1-4.2-9-6.6-14.8-4.9c-3.7,1.1-4.9-0.5-6.1-3.4
		c-2.5-5.7-4.7-11.6-6.4-17.6c-0.8-2.7-0.8-5.5-0.4-8.2c1.7-9.7,9.7-13.7,18.4-9.1c6.1,3.2,10.9,7.9,14.3,13.9
		c2.3,4.1,4.5,8.4,6.4,12.7c8.6,19.4,21.7,35.2,39,47.5c6.5,4.6,13.1,9.2,20.1,13.1c1.3,0.7,2.6,1.5,3.9,2.2c1.8,0.8,3.5,0.7,4.6-1
		c1.3-1.9,0.3-3.4-1.3-4.4c-1.8-1.3-3.8-2.3-5.8-3.5c-19.3-11.5-36.9-24.9-48.3-44.9c-3.2-5.6-6-11.5-8.9-17.3
		c-3.3-6.5-6.9-12.8-12.3-17.8c-3.9-3.6-8.2-6.5-13.3-8.2c-4.5-1.5-4.9-2.9-2.9-7.1c3-6.2,10.1-9.3,17.1-7.4
		c6.3,1.7,11,5.7,15.2,10.5c5.6,6.5,9.7,13.9,13.7,21.4c9.5,17.8,21.6,33.5,37.1,46.6c7.5,6.3,15.7,11.5,24.7,15.5
		c1.9,0.8,4,1.5,5.1-1c0.9-2.3-0.4-3.8-2.4-4.8c-0.2-0.1-0.5-0.2-0.7-0.3s-0.4-0.2-0.7-0.3c-25.2-11.9-42.5-31.8-55.6-55.9
		c-5.4-9.9-11.4-19.4-18.5-28.1c-4.1-5-2.9-10.6,3.1-13.3c3.9-1.8,7.8-1.6,11.6,0.1c5.2,2.3,9.2,5.9,12,10.9
		c1.7,3.1,3.3,6.2,4.8,9.3c12,24.4,30.3,43.2,52.8,58c13.6,8.9,27.7,16.8,42.4,23.9c8.1,3.9,6.7,3.7,3.4,10.4
		c-6.5,13.2-10,27.1-9.7,41.9c0,2,0.1,4,0.5,6c0.4,2.1,1.6,3.8,4.1,3.4c2.3-0.3,2.5-2.1,2.5-3.9c0-1.2-0.1-2.5-0.2-3.7
		c-0.8-13.8,1.4-27.1,8.2-39.1c7.8-13.7,8.9-27.7,5.2-42.6c-1.9-7.5-3-15.2-1-23c1.3-5.2,3.4-10,6.9-14c6-7,12.5-6.1,16.5,2.1
		c0.4,0.9,0.8,1.8,1.1,2.8c5.3,17.7,11.1,35.2,15.9,53.1c5.2,19.2,4.9,39.1,4.4,58.8C1468.2,1011.9,1467.9,1016.6,1467.7,1021.3z"/>
	<path class="st0" d="M1198.2,1177c9,23.6,18.9,46.6,26.4,70.6c2.5,7.9,4.4,15.9,5.8,24c3.2,18.5,1.5,36.8-2.1,55.1
		c-3.4,17.4-8,34.5-15.8,50.5c-9.8,20.1-12.6,41.9-15.1,63.8c-2.3,19.6-4.2,39.2-6.3,58.8c-0.7,6.1-0.7,6-7,5.1
		c-34.8-4.9-69.7-9.7-104.5-14.6c-5.6-0.8-11.2-1.7-17.5-2.6c4-11.4,7.8-22.1,11.7-32.8c1.8-4.9,1.9-11.5,5.8-14.3
		c4.2-3,10.6-0.8,16-0.9c8.2-0.2,16.5,0,24.7,0c6.1,0,6.2,0,7.8-6.2c5.6-20.7,11.1-41.4,16.7-62.1c0.5-1.9,0.7-3.9,2.3-5.7
		c4,3.8,7.9,7.5,11.9,11.2c1.5,1.3,3.1,2.6,4.7,3.7c1.4,1,2.8,0.8,3.9-0.6s1-2.8,0-4.1c-1-1.1-2.1-2.1-3.3-3
		c-24.4-20.8-36.7-47.3-37.6-79.3c-0.4-12.7-0.9-25.5-1.4-38.2c-0.2-5.6,0.9-10.6,6.3-13.3c5.5-2.8,10.7-1.2,15.6,1.8
		c5,3,7.4,8,9.4,13.2c2.8,7.3,3.7,15,4.7,22.7c0.8,5.9,1.8,11.8,3.9,17.5c0.8,2,1.4,4.8,4.6,3.4c2.7-1.2,2.6-3.6,1.5-5.7
		c-3.9-7.6-2-14.8,0.1-22.5c8.3-30,16.3-60.2,24.3-90.3C1196.1,1180.3,1196.2,1178.5,1198.2,1177z"/>
	<path class="st0" d="M948.6,1274.2c2.6-1.2,4.6-0.8,6.6-0.8c52.2,0,104.4,0,156.6,0c1.2,0,2.5,0.1,3.7,0c3-0.2,3.9,1.2,4,4
		c0.2,7.2,0.4,14.5,1,21.7c1.5,20,7.1,38.7,18.6,55.4c1.7,2.5,2.1,4.7,1.3,7.6c-6.1,22.1-12.1,44.3-17.9,66.5
		c-0.8,3.2-2.2,4.5-5.6,4.5c-34.2-0.1-68.4-0.1-102.7,0c-2.8,0-4.7-0.4-5.7-3.4c-5.1-14.3-10.3-28.6-15.4-43
		c-0.2-0.7-0.2-1.5-0.3-2.6c5.4,0,10.6,0,15.8,0c25.2,0,50.5,0,75.7,0c2,0,4,0,6-0.2c1.7-0.2,2.6-1.5,2.5-3.2s-1.1-2.7-2.8-2.8
		c-2-0.1-4-0.1-6-0.1c-29.2,0-58.5,0-87.7,0c-8.1,0-6.3,0.9-8.9-6.1c-2.3-6-5.2-11.8-6.5-18.2c2.7-1.1,5.2-0.6,7.6-0.6
		c34.5,0,68.9,0,103.4,0c2.2,0,4.5,0,6.7-0.2c1.7-0.2,2.6-1.4,2.5-3.2c-0.1-1.4-0.9-2.4-2.2-2.6c-2.2-0.3-4.5-0.3-6.7-0.3
		c-36,0-71.9,0-107.9,0c-7.4,0-6.1,1.4-9-6c-3.7-9.5-7.5-19-11.2-28.6c-0.8-2-2.3-3.9-1.7-7c2.6,0,5.2,0,7.9,0
		c44.7,0,89.4,0,134.1,0c2.2,0,4.5,0,6.7-0.2c1.7-0.2,2.7-1.3,2.6-3c0-1.7-1-2.8-2.7-3c-2-0.2-4-0.2-6-0.2c-46.2,0-92.4,0-138.6,0
		c-9,0-7.1,1.2-10.7-7.1C953.5,1285.7,951.1,1280.2,948.6,1274.2z"/>
	<path class="st0" d="M1956.1,1118.5c-21.9-23.3-43.2-45.9-64.4-68.5c1.3-2.5,3.4-3,5-3.9c35.2-20.3,70.4-40.6,105.6-61.1
		c3.7-2.2,7-2.7,11.2-1.5c22.3,6.4,44.6,12.5,66.7,19.5c0.9,0.3,2,0.1,2.8,2.2C2039.9,1041.4,1998.2,1079.5,1956.1,1118.5z"/>
	<path class="st0" d="M1880.4,1049.1c-21.5,20.9-43,41.7-64.8,63c-33.1-36.6-65.9-72.7-100.7-107.9c14.1-5.8,27.8-9.3,41.5-12.4
		c11.4-2.6,23-4.5,34.5-6.8c2.9-0.6,5.2-0.2,7.6,1.7c26.6,20.2,53.4,40.4,80.1,60.6C1879.1,1047.6,1879.6,1048.2,1880.4,1049.1z"/>
	<path class="st0" d="M933,1242.8c63,0,125.1,0,188.1,0c-2.6,6.6-2.5,13-1.9,19.3c0.4,4.2-1.4,5.3-5.1,4.9c-1-0.1-2,0-3,0
		c-52.9,0-105.8-0.1-158.7,0.1c-5.6,0-8.5-1.6-10.5-6.8C939.6,1254.6,936.3,1249.3,933,1242.8z"/>
	<path class="st0" d="M1012.3,1439.8c20.4,0,39.5,0,58.8,0c-1.3,7.8-21.9,65.7-29.4,82.3C1031.7,1494.4,1022.1,1467.5,1012.3,1439.8
		z"/>
	<path class="st0" d="M811.3,951.3c1.2-1.5,2.6-0.9,4-0.3c15.6,6.8,31.8,9.2,48.5,7.2c0.4,0.7,0.9,1.1,0.9,1.5
		c-0.4,14.7,1.3,13.7-14,13.5c-14.2-0.2-25.7-6.6-35.2-17c-1.5-1.6-2.3-3.9-4.4-5L811.3,951.3z"/>
	<path class="st0" d="M815.3,942.5c15.3,0.7,30.2,0.5,45.1-1c2.5-0.2,4.9-0.8,5,3.3c0.1,5.5-0.2,6.7-4,7c-15,0.9-29.8-0.2-43.7-6.9
		C816.9,944.6,815.8,944.5,815.3,942.5z"/>
	<path class="st0" d="M811.2,951.2c0.1,0,0.2,0,0.3-0.1c-0.1,0.1-0.1,0.1-0.2,0.2C811.3,951.3,811.2,951.2,811.2,951.2z"/>
	<path class="st2" d="M576.4,818.9c-3.1,0.6-5-1.3-7.1-3.2c-6.5-6.1-13.9-10.5-22.6-12.6c-16.9-4.1-31.1,6.7-31.6,24.4
		c-0.3,12.2,3.5,23.1,10.8,32.7c14.8,19.4,34.5,29.6,59,30.4c2.5,0.1,6.3-1.2,6.5,2.9c0.2,4.7-4,3.2-6.7,3.5
		c-1.7,0.2-3.5,0.2-5.2,0.3c-15.1-1.8-29.2-6.3-41.3-15.7c-14.8-11.4-26.1-25.3-29.7-44.3c-2-10.6,0.1-20.5,6.3-29.2
		c6.7-9.4,16.1-13.7,27.9-12.4c12.6,1.4,23.1,7.2,32.3,15.8C577.4,813.9,577.8,816.1,576.4,818.9z"/>
	<path class="st2" d="M844.9,1204.6c0.1,1.7-0.9,2.8-2.2,3.6c-1.5,0.8-3.2,1.4-4.8,2.2c-27.8,12.9-50.6,31.7-68.1,57
		c-0.8,1.2-1.7,2.5-2.6,3.7c-1.2,1.5-2.7,2.4-4.5,1.1c-1.8-1.2-2-2.8-1-4.5c0.5-0.9,1-1.7,1.6-2.5c19.1-27.9,44.1-48.7,75.2-62.1
		c1.1-0.5,2.3-0.9,3.6-1.1C843.5,1201.7,844.8,1203.1,844.9,1204.6z"/>
	<path class="st2" d="M1921.5,1191.8c7.3,0.1,13.3,6.1,13.2,13.3c-0.1,7.2-6.2,13.2-13.5,13.1s-13.3-6.1-13.2-13.3
		C1908.1,1197.6,1914.1,1191.8,1921.5,1191.8z M1927.9,1205.1c0.1-3.6-2.9-6.7-6.4-6.8c-3.5-0.1-6.7,3-6.7,6.6
		c-0.1,3.7,2.8,6.7,6.5,6.7C1924.9,1211.7,1927.8,1208.8,1927.9,1205.1z"/>
	<path class="st2" d="M1932.6,1141.7c-0.1,7.4-6,13.1-13.4,12.9c-7.4-0.1-13-5.9-12.9-13.4c0.1-7.3,6.1-13.2,13.4-13.1
		C1926.8,1128.3,1932.7,1134.4,1932.6,1141.7z M1925.9,1141.8c0.2-3.8-2.5-6.7-6.3-6.9c-3.7-0.2-6.8,2.7-7,6.2c-0.2,3.4,3,6.9,6.4,7
		C1922.5,1148.4,1925.8,1145.4,1925.9,1141.8z"/>
	<path class="st2" d="M801.4,801.3c0.2,7.3-1.1,10.6-3.9,11.3c-2.8,0.7-5.7-1.4-8.1-6.4c-3-6.1-4.5-12.6-4.2-19.5
		c0.1-1.7,0.1-3.4,1-5.1c2.1-4.1,5.9-4.8,8.9-1.3c1,1.1,1.7,2.5,2.2,3.8C799.7,790.2,801.2,796.5,801.4,801.3z"/>
	<path class="st2" d="M536.7,834.7c11.3,0.9,22,4,32.1,9.1c3.7,1.9,4.6,4.4,2.3,6s-4.2,0.3-6.2-0.7c-7.4-3.5-15.2-6-23.4-7.2
		c-2.5-0.4-4.9-0.7-7.4-0.8c-2.5-0.2-4.7-1-4.6-3.7c0.2-3,2.7-3.1,5.1-2.8C535.2,834.6,535.9,834.7,536.7,834.7z"/>
	<path class="st2" d="M1800.3,846.7c21.2-1,42.6-2.6,63.6-6.7c8.7-1.7,10-0.3,7.9,8.1c-7.7,31.2-40.3,49.2-68.9,37.8
		c-15.7-6.3-25.6-18.5-32.3-33.6c-1.7-3.8-0.4-5.5,4-5.6C1783.1,846.6,1791.6,846.7,1800.3,846.7z M1864.2,846.9
		c-28.1,4.8-56.2,7-84.8,6.2c6,18.3,26.7,31.5,45.3,29.6C1844,880.7,1862.2,864.5,1864.2,846.9z"/>
	<path class="st2" d="M1808.5,810.8c4.7,0,9.5,0,14.2,0c2,0,4.3-0.3,4.6,2.4c0.3,2.4-1.3,3.6-3.6,3.9c-15,1.8-29.9,2.1-44.5-2.5
		c-1.9-0.6-3.8-1.4-5.5-2.4c-7.9-4.4-10.7-10.9-7.9-19.5c1.3-4,3.1-7.9,5-11.7c7.8-15.9,16.5-31.4,21.7-48.4
		c0.1-0.5,0.3-0.9,0.5-1.4c0.8-2,2-3.7,4.4-3c2.5,0.7,2.5,2.8,1.9,4.9c-0.5,1.7-1.1,3.3-1.6,5c-5,14.7-12.2,28.4-19.1,42.2
		c-2.1,4.2-4.2,8.5-5.9,12.9c-2.7,6.9-0.6,11.6,6.2,14.4c4.9,1.9,10,3.3,15.3,3.5c4.7,0.2,9.5,0,14.2,0
		C1808.5,811.1,1808.5,810.9,1808.5,810.8z"/>
	<path class="st2" d="M1873.3,726.3c-0.6,4.2-1,8.4-2,12.5c-0.6,2.7-2,5.4-5.4,5.4c-2.9,0-4.3-2.3-5.1-4.8
		c-2.8-8.4-2.5-16.7,0.7-24.9c1-2.5,2.8-4.2,5.7-3.9c2.6,0.3,3.9,2.3,4.5,4.5C1872.7,718.7,1873,722.5,1873.3,726.3z"/>
	<path class="st2" d="M1753.4,725.2c0.2,4.8-0.4,9.5-1.8,14c-0.7,2.5-2.1,4.8-5,4.9c-2.9,0.1-4.4-2.1-5.2-4.5
		c-2.6-8.3-2.5-16.7,0.5-24.9c0.9-2.4,2.7-4.3,5.6-4.1c3,0.2,4,2.5,4.9,5C1753.5,718.8,1753.2,722,1753.4,725.2z"/>
	<path class="st2" d="M2018.2,767.7c-2.4,0.2-4.2-1.8-3.5-3.8c0.4-1.1,1.2-2.2,2-3.1c5.8-6.7,12.6-11.9,21-14.9
		c1.6-0.6,3.4-0.9,5.1-1.1c1.6-0.2,2.9,0.5,3.4,2.3c0.4,1.7-0.2,3.2-1.8,3.6c-10,2.6-17.7,8.6-24.4,16.3
		C2019.5,767.4,2018.6,767.5,2018.2,767.7z"/>
	<path class="st2" d="M921.9,1172.5c4-14.9,7.8-28.9,11.5-42.8c3.7-14,7.6-27.9,11.2-41.9c0.9-3.4,2.1-4.9,6-4.9
		c25.7,0.2,51.4,0.1,77.1,0.1c0.9,0,1.9,0.3,3.1,0.4c-0.1,1.2,0,2.2-0.2,3.1c-7.3,27.2-14.7,54.4-22,81.6c-0.7,2.7-1.4,4.5-4.7,4.5
		C976.9,1172.5,950,1172.5,921.9,1172.5z M1022.8,1089.8c-23.6,0-45.8,0-68-0.1c-3.1,0-4.2,1.3-5,4.2c-5.8,22.2-11.9,44.3-17.8,66.4
		c-0.4,1.5-1.5,3.2-0.3,4.9c10.4,1.3,10.7,1.3,13-8.6c2.3-9.8,6.6-18.3,15.1-24.1c2.1-1.4,2.4-2.6,1.4-4.9
		c-5.1-11.7,4.6-27.1,18.1-30.2c6.1-1.4,11.5-0.7,15.8,3.9c4.5,4.8,5.1,10.5,3.3,16.8c-1.6,5.5-5.1,9.6-9.6,14
		c10.7,10.3,4.3,21.8,2.1,32.4c1.2,1.4,2.2,1.4,3.2,1.4c7.6-0.2,7.8,1.7,10-7.3c3.2-12.8,6.8-25.5,10.2-38.3
		C1017.2,1110.3,1019.9,1100.5,1022.8,1089.8z M949.7,1165.7c10.9,0,20.8,0,30.8,0c2.3,0,3.6-0.8,4.1-3.3c1-4.6,2.4-9.1,3.4-13.8
		c1.1-5.3-0.6-9.7-5-13.2c-5-3.9-4.9-4.5,0.5-8.3c4.5-3.1,7.7-7,8.9-12.4c1.7-7.7-3.3-12.8-11-11.1c-4.5,1-8.2,3.5-11.1,7.1
		c-5.1,6.6-5.1,11.1,0,18c2.3,3.1,2.3,4.5-1.5,6.2C955.7,1140.7,951.8,1152.1,949.7,1165.7z"/>
	<path class="st2" d="M1090.6,1138c16.5,0,32.9,0,49.4,0c2.8,0,7-1.2,7.2,3.1c0.2,4.4-4.1,3.3-6.9,3.3c-33.4,0.1-66.8,0.1-100.2,0
		c-2.7,0-7.1,1.3-7.1-3c0-5,4.7-3.3,7.6-3.3C1057.2,1137.9,1073.9,1138,1090.6,1138z"/>
	<path class="st2" d="M1068.2,1117.5c-7,0-13.9,0-20.9,0c-1.7,0-3.5-0.1-5.2-0.4c-1.4-0.2-2.1-1.2-2.2-2.6c-0.1-1.7,0.7-2.9,2.4-3.2
		c1.5-0.2,3-0.2,4.5-0.2c14.2,0,28.4,0,42.5,0c0.5,0,1,0,1.5,0c2.5,0,5.6-0.2,5.5,3.3c-0.1,3.4-3.2,3.1-5.7,3.1
		C1083.1,1117.5,1075.7,1117.5,1068.2,1117.5z"/>
	<path class="st0" d="M1927.9,1205.1c-0.1,3.7-3,6.6-6.7,6.5c-3.6-0.1-6.5-3.1-6.5-6.7c0.1-3.5,3.2-6.6,6.7-6.6
		C1925,1198.3,1928,1201.5,1927.9,1205.1z"/>
	<path class="st0" d="M1925.9,1141.8c-0.2,3.6-3.4,6.6-6.9,6.4c-3.4-0.2-6.6-3.7-6.4-7c0.2-3.6,3.4-6.4,7-6.2
		C1923.4,1135.1,1926.1,1138,1925.9,1141.8z"/>
	<path class="st3" d="M1864.2,846.9c-1.9,17.6-20.2,33.8-39.5,35.8c-18.6,1.9-39.2-11.3-45.3-29.6
		C1807.9,853.9,1836.1,851.7,1864.2,846.9z"/>
	<path class="st0" d="M1022.8,1089.8c-2.9,10.7-5.5,20.5-8.2,30.4c-3.4,12.7-7.1,25.4-10.2,38.3c-2.2,9-2.4,7.1-10,7.3
		c-1,0-2,0-3.2-1.4c2.2-10.7,8.6-22.2-2.1-32.4c4.5-4.3,7.9-8.5,9.6-14c1.8-6.2,1.2-12-3.3-16.8c-4.3-4.6-9.7-5.3-15.8-3.9
		c-13.5,3.2-23.2,18.5-18.1,30.2c1,2.3,0.6,3.5-1.4,4.9c-8.5,5.8-12.8,14.3-15.1,24.1c-2.4,9.9-2.6,9.8-13,8.6
		c-1.2-1.7-0.1-3.3,0.3-4.9c5.9-22.1,11.9-44.3,17.8-66.4c0.8-2.9,1.9-4.2,5-4.2C977,1089.8,999.2,1089.8,1022.8,1089.8z"/>
	<path class="st0" d="M949.7,1165.7c2.1-13.7,5.9-25.1,19.2-30.8c3.8-1.7,3.9-3.1,1.5-6.2c-5.1-6.9-5.2-11.4,0-18
		c2.8-3.7,6.5-6.2,11.1-7.1c7.7-1.7,12.7,3.4,11,11.1c-1.2,5.4-4.4,9.3-8.9,12.4c-5.4,3.8-5.5,4.4-0.5,8.3c4.4,3.4,6,7.8,5,13.2
		c-0.9,4.6-2.4,9.1-3.4,13.8c-0.5,2.4-1.9,3.3-4.1,3.3C970.5,1165.7,960.6,1165.7,949.7,1165.7z"/>
</g>
</svg>
